# xmcd CD database file
#
# Track frame offsets:
#	150
#	25780
#	48205
#	94585
#	125717
#	160577
#	189795
#	215617
#	237155
#	280742
#	317925
#
# Disc length: 4603 seconds
#
# Revision: 0
# Processed by: cddbd v1.5.2PL0 Copyright (c) Steve Scherf et al.
# Submitted via: CDex 1.51
#
DISCID=8c11f90b
DTITLE=Wayne Shorter - Introducing Wayne Shorter
DYEAR=1959
DGENRE=Jazz
TTITLE0=Blues A La Carte
TTITLE1=Harry's Last Stand
TTITLE2=Down In The Depths
TTITLE3=Pug Nose
TTITLE4=Black Diamond
TTITLE5=Mack The Knife
TTITLE6=Blues A La Carte (Alt)
TTITLE7=Harry's Last Stand (Alt)
TTITLE8=Down In The Depths (Alt)
TTITLE9=Pug Nose (Alt)
TTITLE10=Black Diamond (Alt)
EXTD=YEAR: 1959
EXTT0=
EXTT1=
EXTT2=
EXTT3=
EXTT4=
EXTT5=
EXTT6=
EXTT7=
EXTT8=
EXTT9=
EXTT10=
PLAYORDER=
